<?xml version="1.0" standalone="no"?>
<!DOCTYPE svg PUBLIC "-//W3C//DTD SVG 20010904//EN"
 "http://www.w3.org/TR/2001/REC-SVG-20010904/DTD/svg10.dtd">
<svg version="1.0" xmlns="http://www.w3.org/2000/svg"
 width="840.000000pt" height="859.000000pt" viewBox="0 0 840.000000 859.000000"
 preserveAspectRatio="xMidYMid meet">

<g transform="translate(0.000000,859.000000) scale(0.100000,-0.100000)"
fill="#000000" stroke="none">
<path d="M3698 6536 c-10 -7 -23 -30 -30 -52 -11 -32 -18 -40 -42 -42 -16 -2
-48 4 -72 13 -84 32 -115 -2 -83 -91 30 -86 29 -139 -4 -202 -30 -59 -33 -80
-15 -128 21 -60 -30 -87 -76 -40 -21 20 -23 28 -16 67 5 24 13 57 19 72 24 64
7 172 -36 219 -21 24 -36 23 -23 -1 17 -33 11 -84 -15 -131 -14 -25 -32 -59
-40 -76 -8 -17 -21 -34 -30 -37 -24 -10 -20 -87 8 -127 38 -57 70 -74 137 -75
33 0 60 -1 60 -3 0 -2 -18 -25 -40 -51 -25 -29 -40 -57 -40 -74 0 -32 14 -34
85 -13 26 8 72 18 101 22 l53 6 -6 -50 c-5 -46 -4 -51 22 -68 19 -12 44 -18
77 -16 45 2 48 1 39 -17 -6 -10 -23 -22 -38 -26 -15 -3 -50 -17 -78 -29 -27
-13 -99 -45 -160 -71 -60 -26 -243 -116 -405 -198 -305 -155 -444 -225 -565
-283 -38 -18 -113 -56 -165 -84 -110 -60 -250 -131 -367 -186 -45 -22 -82 -42
-82 -45 -2 -15 57 -1 94 22 70 45 281 149 303 149 11 0 22 6 25 14 3 8 88 54
188 102 101 49 291 144 423 210 436 221 500 252 646 319 80 37 181 75 225 86
96 23 219 24 295 4 65 -17 73 -18 66 -6 -4 5 -29 15 -57 22 -64 17 -89 46
-146 169 -24 52 -56 119 -71 148 -25 50 -82 111 -128 138 -19 12 -18 12 4 34
14 13 44 25 80 31 112 18 202 54 202 81 0 6 -10 2 -22 -9 -13 -11 -39 -25 -58
-31 -42 -13 -175 -33 -191 -30 -14 3 -59 -58 -59 -78 0 -8 9 -14 19 -14 22 0
84 -67 112 -122 11 -21 33 -76 50 -122 16 -46 44 -105 60 -131 l30 -48 -45 6
c-24 4 -46 3 -48 -2 -2 -4 -29 -11 -60 -15 -57 -6 -58 -6 -58 19 0 14 7 39 15
55 9 17 12 30 7 30 -5 0 -14 -11 -20 -24 -26 -57 -111 -73 -140 -26 -14 22 0
65 25 74 11 5 13 0 8 -22 -8 -39 15 -60 50 -44 14 7 25 16 25 22 0 13 -13 13
-27 -1 -13 -13 -33 -4 -33 16 0 19 38 29 55 15 12 -10 15 -9 15 3 0 10 -23 19
-82 31 -75 15 -90 16 -158 3 -41 -8 -85 -18 -97 -22 -39 -13 -27 19 30 75 51
51 131 100 162 100 8 0 15 5 15 11 0 7 -10 9 -26 5 -34 -9 -90 33 -111 81 -13
33 -12 39 16 108 17 41 31 90 31 111 0 37 0 37 20 19 30 -27 34 -12 10 35 -12
24 -20 55 -18 73 l3 32 61 0 c65 0 97 17 109 56 9 28 42 23 60 -8 l15 -28 -6
40 c-10 63 -30 78 -66 51z"/>
<path d="M3882 6414 c-25 -15 -52 -24 -63 -21 -17 5 -18 3 -8 -9 9 -11 9 -18
1 -26 -9 -9 -20 -6 -43 11 -19 14 -30 18 -27 10 2 -8 21 -23 41 -34 l37 -20
44 48 c39 42 49 47 86 47 48 0 106 -24 120 -50 12 -23 -10 -42 -70 -60 l-45
-14 33 -4 c46 -5 85 -43 77 -75 -8 -29 -86 -104 -124 -119 -14 -6 -36 -15 -47
-20 -15 -7 -29 -6 -45 2 -15 8 -6 -7 27 -41 28 -30 70 -79 94 -109 83 -103
109 -120 184 -120 63 0 111 39 170 141 102 173 168 239 240 239 54 0 94 -27
122 -83 50 -98 30 -186 -69 -293 -93 -102 -249 -189 -375 -208 l-76 -12 33
-20 c18 -12 50 -42 72 -68 21 -27 39 -44 39 -38 0 6 -16 30 -36 54 l-37 43 29
3 c85 9 285 93 358 151 87 69 215 99 300 71 50 -16 75 -64 56 -110 -7 -17 -26
-38 -42 -46 -17 -9 -28 -18 -25 -20 9 -9 65 25 86 52 25 32 28 94 5 129 -18
28 -67 58 -109 69 -83 21 -126 63 -140 137 l-7 36 48 7 c69 9 567 7 809 -4
531 -24 645 -31 812 -50 206 -23 303 -39 320 -52 7 -5 16 -7 21 -4 6 3 69 -5
141 -18 206 -39 310 -99 373 -218 19 -36 23 -58 23 -135 0 -89 -1 -93 -47
-185 -26 -51 -50 -105 -54 -120 -7 -32 10 -68 33 -68 15 0 14 2 -2 13 -21 16
-16 64 12 106 10 15 23 40 29 56 7 17 22 55 33 85 30 75 30 159 2 231 -74 192
-267 262 -911 333 -342 38 -794 57 -1290 55 l-365 -2 -20 36 c-61 106 -120
127 -242 86 -59 -20 -82 -39 -48 -39 22 0 19 -10 -14 -45 -16 -16 -48 -64 -72
-105 -23 -41 -55 -91 -70 -111 -44 -57 -119 -84 -159 -59 -12 8 -10 14 13 38
15 15 27 34 27 41 0 8 -14 -4 -31 -25 -17 -22 -35 -39 -40 -39 -14 0 -119 107
-119 121 0 17 42 25 79 14 26 -7 31 -7 22 4 -15 17 16 45 61 55 65 14 86 -9
52 -57 -9 -13 -14 -25 -11 -28 2 -3 23 28 47 67 23 39 60 90 81 113 l39 41
-32 6 c-41 6 -168 73 -203 105 -22 20 -24 26 -14 48 23 49 -44 106 -123 106
-18 0 -52 -12 -76 -26z m334 -224 c35 -17 64 -35 64 -39 0 -5 -7 -14 -16 -22
-22 -18 -64 6 -147 87 -79 78 -88 101 -16 44 27 -22 79 -53 115 -70z"/>
<path d="M3570 6378 c0 -13 5 -30 10 -38 7 -11 10 -5 10 23 0 20 -4 37 -10 37
-5 0 -10 -10 -10 -22z"/>
<path d="M3750 6311 c0 -6 -10 -11 -22 -11 -13 0 -32 -8 -43 -17 -19 -15 -18
-15 14 -9 18 3 53 6 77 6 44 0 59 13 27 23 -10 2 -26 8 -35 12 -11 4 -18 3
-18 -4z"/>
<path d="M3618 6212 c-16 -9 -28 -21 -28 -26 0 -5 8 -2 18 6 9 8 26 20 37 26
11 6 16 11 10 11 -5 0 -22 -7 -37 -17z"/>
<path d="M3750 5926 c0 -2 7 -17 15 -32 9 -17 13 -41 10 -59 -6 -28 -5 -29 10
-11 19 25 19 39 0 76 -13 25 -35 41 -35 26z"/>
<path d="M3590 5870 c14 -11 30 -19 35 -19 6 0 4 3 -2 6 -7 2 -13 11 -13 19 0
8 -10 14 -22 14 l-23 0 25 -20z"/>
<path d="M6780 5880 c0 -5 5 -10 10 -10 6 0 10 5 10 10 0 6 -4 10 -10 10 -5 0
-10 -4 -10 -10z"/>
<path d="M5320 5867 c3 -3 41 -29 85 -58 250 -163 419 -376 485 -614 37 -134
30 -381 -15 -520 -7 -22 -27 -85 -45 -140 -65 -200 -157 -343 -323 -501 -171
-164 -300 -252 -698 -477 -193 -108 -280 -177 -469 -368 -110 -111 -186 -180
-203 -184 -15 -4 -48 -4 -73 0 -84 12 -161 122 -205 290 -24 91 -27 276 -4
295 19 16 19 30 1 30 -32 0 -76 -52 -94 -112 -17 -54 -23 -62 -60 -78 -25 -11
-51 -34 -67 -58 -46 -69 -181 -144 -262 -146 -78 -2 -81 30 -17 167 74 158 72
261 -7 351 -55 62 -118 81 -239 72 -113 -8 -142 -17 -240 -76 -46 -28 -85 -50
-88 -50 -12 0 -136 -107 -184 -158 -114 -124 -230 -370 -271 -578 -9 -43 -22
-108 -29 -144 -16 -82 -16 -320 1 -385 7 -28 17 -70 23 -95 22 -90 115 -252
198 -343 81 -88 209 -143 313 -134 197 17 293 80 450 290 143 191 163 214 214
244 37 22 49 24 64 15 15 -10 19 -9 19 3 0 27 -63 18 -111 -17 -59 -43 -85
-72 -186 -216 -156 -223 -300 -312 -486 -299 -136 9 -263 103 -368 273 -113
182 -149 394 -110 654 52 339 163 586 342 754 167 157 327 238 474 239 241 2
319 -167 194 -415 -38 -75 -43 -131 -14 -152 43 -33 134 -13 238 50 32 20 60
34 63 31 2 -2 0 -16 -5 -30 -5 -14 -15 -61 -21 -104 -25 -184 40 -342 169
-407 44 -23 44 -23 21 -36 -92 -49 -351 -76 -496 -51 -127 22 -223 98 -265
210 -36 96 -18 217 62 411 49 120 30 202 -54 240 -61 28 -111 25 -187 -11
-218 -103 -400 -366 -455 -659 -14 -73 -17 -318 -6 -386 50 -294 205 -508 407
-563 56 -15 142 2 213 42 68 39 200 168 307 302 74 93 122 161 74 105 -12 -14
-36 -41 -53 -60 -18 -19 -59 -68 -91 -108 -77 -95 -184 -193 -255 -234 -50
-29 -64 -33 -131 -33 -65 1 -83 5 -135 33 -72 39 -89 53 -137 112 -187 231
-241 621 -128 929 87 238 265 455 414 505 70 23 126 21 167 -7 70 -47 70 -101
-1 -272 -51 -123 -67 -217 -51 -292 16 -71 57 -146 108 -195 56 -55 132 -85
260 -103 102 -15 119 -15 210 -1 104 17 209 44 264 69 19 8 51 21 72 27 22 7
66 38 103 73 36 33 86 70 113 82 59 28 118 87 127 128 4 21 42 69 107 140 176
189 318 295 612 457 386 212 663 441 785 650 89 152 157 333 191 512 26 136
22 268 -12 393 -32 120 -33 115 41 152 250 125 539 206 790 222 l95 6 -78 8
c-79 9 -102 7 -242 -19 -194 -36 -405 -106 -593 -197 l-50 -24 -58 91 c-101
161 -173 242 -296 335 -54 40 -229 140 -208 118z"/>
<path d="M6898 5863 c7 -3 16 -2 19 1 4 3 -2 6 -13 5 -11 0 -14 -3 -6 -6z"/>
<path d="M3465 5850 c-3 -5 -2 -10 4 -10 5 0 13 5 16 10 3 6 2 10 -4 10 -5 0
-13 -4 -16 -10z"/>
<path d="M6950 5856 c0 -2 9 -6 20 -9 11 -3 18 -1 14 4 -5 9 -34 13 -34 5z"/>
<path d="M7110 5810 c0 -5 5 -10 11 -10 5 0 7 5 4 10 -3 6 -8 10 -11 10 -2 0
-4 -4 -4 -10z"/>
<path d="M6853 5763 c9 -2 25 -2 35 0 9 3 1 5 -18 5 -19 0 -27 -2 -17 -5z"/>
<path d="M4832 5717 c-26 -27 -29 -69 -6 -91 24 -24 27 -19 8 13 -23 40 -7 81
31 81 22 0 25 -4 20 -20 -5 -14 -2 -20 10 -20 24 0 31 31 10 46 -27 20 -49 17
-73 -9z"/>
<path d="M6854 5515 c0 -23 -11 -50 -33 -81 -35 -50 -37 -67 -3 -31 28 30 75
125 67 137 -14 22 -31 9 -31 -25z"/>
<path d="M6720 5308 c-35 -56 -36 -77 -6 -134 32 -61 83 -91 138 -80 27 5 41
1 68 -19 26 -19 46 -25 86 -25 28 0 68 -7 87 -15 46 -19 100 -19 136 -1 64 34
130 139 131 208 0 44 -41 98 -73 98 -19 0 -18 -3 10 -19 57 -35 53 -121 -10
-202 -73 -95 -188 -106 -252 -23 -14 18 -15 17 -9 -10 l7 -28 -44 7 c-48 8
-85 31 -94 57 -3 9 -13 22 -21 29 -13 11 -14 9 -9 -14 6 -24 4 -27 -16 -26
-42 2 -68 13 -99 42 -25 24 -30 37 -30 73 0 25 7 60 14 79 19 44 12 45 -14 3z"/>
<path d="M5258 5053 c7 -3 16 -2 19 1 4 3 -2 6 -13 5 -11 0 -14 -3 -6 -6z"/>
<path d="M1809 4721 c-41 -13 -66 -29 -119 -76 -28 -25 -58 -45 -68 -45 -33 0
-83 -40 -102 -83 -40 -87 -15 -161 65 -192 25 -9 53 -28 62 -41 15 -24 15 -26
-15 -57 -56 -58 -67 -125 -31 -192 27 -51 71 -93 116 -111 19 -9 51 -30 70
-49 51 -49 95 -62 143 -40 34 16 40 16 68 1 46 -24 122 -21 163 7 68 46 99
126 66 172 -13 16 -14 15 -9 -13 6 -41 -13 -94 -43 -122 -32 -30 -104 -43
-162 -29 -52 14 -116 80 -144 151 -10 24 -18 36 -18 28 -1 -23 36 -99 64 -132
33 -39 23 -52 -32 -45 -78 9 -144 90 -167 207 -3 14 -3 0 -2 -30 2 -30 7 -63
11 -72 12 -30 -13 -20 -60 23 -72 66 -83 158 -26 221 l26 29 38 -28 c21 -14
36 -32 33 -38 -7 -19 108 42 135 72 30 31 46 73 30 73 -6 0 -11 -7 -11 -15 0
-22 -57 -82 -88 -93 -43 -15 -92 10 -124 63 -20 33 -40 50 -82 70 -49 23 -57
31 -66 66 -21 78 23 164 89 175 29 5 54 21 100 65 47 45 70 60 101 65 22 4 40
10 40 15 0 11 -15 10 -51 0z"/>
<path d="M1985 4700 c3 -5 8 -10 11 -10 2 0 4 5 4 10 0 6 -5 10 -11 10 -5 0
-7 -4 -4 -10z"/>
<path d="M2067 4636 c52 -59 68 -120 58 -214 -11 -97 -6 -154 19 -230 24 -70
65 -155 66 -136 0 6 -12 44 -26 85 -19 55 -26 96 -28 159 l-1 85 165 42 c91
23 192 47 225 53 33 6 80 17 105 25 25 8 83 19 130 25 47 5 123 16 170 25 213
37 340 48 565 49 127 1 262 -2 300 -6 69 -6 69 -6 28 7 -60 19 -303 39 -398
32 -349 -25 -451 -39 -810 -108 -89 -17 -397 -93 -466 -116 -14 -4 -17 4 -18
53 0 43 -8 74 -33 125 -18 37 -39 70 -48 73 -8 3 -22 9 -30 13 -8 3 4 -15 27
-41z"/>
<path d="M3903 4572 c46 -51 85 -315 73 -497 -7 -113 -24 -221 -38 -248 -5
-10 -7 -21 -4 -24 10 -11 34 67 52 168 29 168 21 367 -22 524 -7 27 -11 51 -9
54 3 2 17 -1 31 -8 15 -6 29 -10 31 -7 7 6 -65 41 -102 50 -29 7 -29 7 -12
-12z"/>
<path d="M1785 4470 c11 -5 30 -9 42 -9 11 -1 33 -15 47 -32 14 -17 26 -26 26
-21 0 6 -12 24 -26 41 -21 26 -33 31 -67 30 -33 0 -38 -2 -22 -9z"/>
<path d="M1709 4373 c-13 -17 -13 -17 6 -3 11 8 22 16 24 17 2 2 0 3 -6 3 -6
0 -17 -8 -24 -17z"/>
<path d="M1692 4330 c0 -14 2 -19 5 -12 2 6 2 18 0 25 -3 6 -5 1 -5 -13z"/>
<path d="M1720 4240 c0 -5 5 -10 11 -10 5 0 7 5 4 10 -3 6 -8 10 -11 10 -2 0
-4 -4 -4 -10z"/>
<path d="M1911 4212 c-19 -9 -37 -23 -39 -31 -3 -8 6 -6 24 8 16 11 44 24 61
27 29 6 38 2 73 -34 22 -22 40 -35 40 -30 0 6 -15 25 -34 44 -39 39 -71 43
-125 16z"/>
<path d="M2041 4083 c-19 -18 -21 -23 -8 -23 9 0 21 9 27 21 16 29 9 29 -19 2z"/>
<path d="M3895 3700 c-3 -5 -1 -10 4 -10 6 0 11 5 11 10 0 6 -2 10 -4 10 -3 0
-8 -4 -11 -10z"/>
<path d="M3511 2480 c-60 -33 -91 -58 -91 -72 0 -5 17 4 38 20 34 28 55 38
132 70 l25 11 -25 0 c-14 0 -49 -13 -79 -29z"/>
<path d="M3684 2435 c-8 -20 -53 -82 -116 -160 l-32 -40 38 35 c50 46 129 157
123 172 -3 8 -8 6 -13 -7z"/>
<path d="M1783 2359 c-57 -36 -73 -100 -48 -184 6 -18 -1 -22 -57 -35 -107
-23 -206 -80 -280 -160 -36 -38 -72 -70 -79 -70 -8 0 -50 -20 -93 -45 -44 -25
-83 -45 -86 -45 -4 0 -22 39 -41 87 -56 146 -113 220 -194 251 -57 22 -165 31
-249 21 -108 -13 -137 -23 -173 -62 -47 -49 -65 -93 -70 -176 -10 -158 40
-225 312 -415 l160 -112 -3 -57 c-4 -75 31 -157 80 -187 39 -24 107 -26 147
-5 33 16 77 65 86 95 8 24 28 26 46 4 18 -22 128 -76 222 -109 42 -15 77 -30
77 -33 0 -2 -20 -22 -45 -45 -46 -40 -100 -129 -92 -151 3 -6 33 -22 68 -34
156 -55 389 -74 579 -49 126 17 278 60 286 82 11 28 -53 126 -104 157 -18 11
-31 25 -30 30 2 6 51 25 108 42 260 80 361 144 760 477 221 184 356 287 450
342 36 21 81 51 100 67 l35 29 -30 11 c-16 6 -52 14 -80 16 -27 3 -66 10 -86
16 -27 8 -46 7 -73 -2 -40 -13 -203 -117 -225 -143 -7 -9 -18 -17 -23 -17 -6
0 -28 -14 -49 -31 -23 -18 -88 -48 -157 -72 -103 -36 -128 -41 -207 -42 -88 0
-93 1 -200 51 -60 28 -124 57 -140 63 -17 6 -39 25 -50 42 -23 35 -103 98
-160 127 -23 11 -76 30 -118 43 -63 18 -77 25 -71 38 16 39 16 108 0 140 -35
68 -136 93 -203 50z m163 -33 c29 -29 34 -41 34 -81 0 -40 -5 -52 -34 -81 -29
-29 -41 -34 -81 -34 -42 0 -52 5 -86 39 -41 40 -47 67 -29 116 19 49 58 75
112 75 43 0 54 -4 84 -34z m-1063 -186 c65 -20 114 -74 167 -184 26 -56 53
-118 60 -138 6 -21 14 -38 17 -38 4 0 27 13 52 29 25 16 76 44 112 61 l66 33
64 -26 c127 -50 214 -62 454 -62 194 0 230 3 308 22 48 13 106 32 129 44 51
26 72 21 209 -48 l94 -48 105 0 c153 0 255 40 482 188 64 42 132 84 151 93 34
16 36 16 63 -5 15 -12 47 -26 71 -32 24 -6 43 -14 43 -18 0 -3 -25 -21 -55
-39 -84 -51 -194 -135 -390 -298 -295 -245 -426 -340 -564 -409 -369 -184
-851 -196 -1181 -30 -116 58 -197 168 -285 386 -79 193 -161 355 -193 378 -49
35 -114 47 -178 33 -75 -15 -94 -34 -94 -89 0 -66 32 -118 140 -224 106 -105
176 -156 288 -214 59 -30 76 -44 94 -78 11 -23 29 -54 39 -69 29 -41 25 -91
-12 -133 -66 -75 -162 -64 -206 25 -22 42 -31 109 -17 123 4 4 25 -7 47 -23
23 -17 47 -30 54 -30 29 0 8 28 -55 73 -137 97 -259 183 -314 221 -163 111
-213 184 -212 306 2 184 84 244 319 235 50 -1 107 -8 128 -15z m945 -31 c37
-12 49 -11 88 3 42 15 51 15 117 -1 40 -10 99 -31 132 -47 61 -30 155 -110
155 -133 0 -14 -47 -35 -145 -64 -62 -19 -96 -21 -305 -21 -213 0 -243 2 -318
22 -46 13 -101 30 -123 38 -45 18 -43 30 16 88 49 49 117 87 204 113 79 24
106 24 179 2z m1707 -43 l50 -14 -45 -1 c-25 0 -58 6 -75 14 -29 13 -29 13 -5
14 14 0 48 -6 75 -13z m-2685 -91 c46 -44 232 -445 210 -453 -14 -5 -99 42
-180 99 -96 68 -221 193 -248 251 -50 103 -20 140 110 136 70 -3 80 -6 108
-33z m855 -880 c122 -18 198 -19 336 -4 l107 12 48 -30 c54 -33 117 -107 112
-131 -4 -19 -86 -46 -203 -68 -119 -23 -375 -20 -493 5 -106 22 -182 49 -182
64 0 29 57 102 103 132 29 19 57 34 62 34 6 0 55 -6 110 -14z"/>
<path d="M3525 2280 c-3 -5 -1 -10 4 -10 6 0 11 5 11 10 0 6 -2 10 -4 10 -3 0
-8 -4 -11 -10z"/>
<path d="M3507 2253 c-4 -3 -7 -11 -7 -17 0 -6 5 -5 12 2 6 6 9 14 7 17 -3 3
-9 2 -12 -2z"/>
<path d="M3588 2210 c-18 -16 -28 -29 -23 -29 15 0 82 58 68 59 -7 0 -27 -13
-45 -30z"/>
<path d="M3516 2208 c-9 -12 -16 -30 -16 -40 0 -19 25 -25 35 -8 3 6 -1 10 -9
10 -20 0 -20 9 1 32 9 10 14 21 11 24 -3 3 -13 -5 -22 -18z"/>
</g>
</svg>
